<mxfile host="app.diagrams.net" modified="2024-07-06T09:27:42.682Z" agent="Mozilla/5.0 (Windows NT 10.0; Win64; x64) AppleWebKit/537.36 (KHTML, like Gecko) Chrome/126.0.0.0 Safari/537.36" version="24.5.2" etag="0TXx9tsmIOyfYIBue90X" type="github">
  <diagram name="Page-1" id="a3hAN9hmWtXWAv4Vuma0">
    <mxGraphModel>
      <root>
        <mxCell id="0" />
        <mxCell id="1" parent="0" />
      </root>
    </mxGraphModel>
  </diagram>
</mxfile>
